# xmcd CD database file
#
# Track frame offsets:
#	150
#	19160
#	36370
#	50603
#	63508
#	78900
#	92263
#	107020
#	118940
#	134455
#	169810
#
# Disc length: 2462 seconds
#
# Revision: 83
# Processed by: cddbd v1.5.2PL0 Copyright (c) Steve Scherf et al.
# Submitted via: CDex 2.23
#
DISCID=90099c0b
DTITLE=Blues Brothers - Original Soundtrack Recording
DYEAR=1980
DGENRE=Soundtrack
TTITLE0=She Caught The Katy
TTITLE1=Peter Gunn Theme
TTITLE2=Gimme Some Lovin'
TTITLE3=Shake A Tail Feather [feat. Ray Charles]
TTITLE4=Everybody Needs Somebody To Love
TTITLE5=The Old Landmark (Feat. James Brown)
TTITLE6=Think (Feat. Aretha Franklin)
TTITLE7=Theme From Rawhide
TTITLE8=Minnie The Moocher [feat. Cab Calloway]
TTITLE9=Sweet Home Chicago
TTITLE10=Jailhouse Rock
EXTD=YEAR: 1980
EXTT0=
EXTT1=
EXTT2=
EXTT3=
EXTT4=
EXTT5=
EXTT6=
EXTT7=
EXTT8=
EXTT9=
EXTT10=
PLAYORDER=
